<svg width="1379" height="722" viewBox="0 0 1379 722" fill="none" xmlns="http://www.w3.org/2000/svg">
<mask id="mask0" mask-type="alpha" maskUnits="userSpaceOnUse" x="0" y="0" width="1379" height="722">
<rect y="0.477783" width="1379" height="721.022" fill="#C4C4C4"/>
</mask>
<g mask="url(#mask0)">
<mask id="mask1" mask-type="alpha" maskUnits="userSpaceOnUse" x="164" y="1" width="812" height="721">
<rect x="164.51" y="1.5" width="811" height="720" fill="url(#paint0_linear)"/>
</mask>
<g mask="url(#mask1)">
<path d="M674.119 514.202C672.653 509.268 673.337 503.992 674.038 498.895C675.829 485.917 677.636 472.922 679.428 459.944C684.687 468.851 690.663 477.4 694.132 487.122C700.369 504.513 697.861 523.402 693.822 541.705C688.905 536.038 684.182 530.225 679.737 524.184C677.473 521.09 675.226 517.882 674.119 514.202ZM693.643 219.514C693.562 235.863 693.415 252.635 687.455 267.86C686.397 270.58 685.111 273.201 683.743 275.807C677.343 256.983 681.17 235 693.643 219.514ZM891.019 627.684C895.042 621.838 899.129 615.178 898.103 608.143C897.533 604.202 895.384 600.685 893.299 597.298C885.402 584.466 877.488 571.635 869.574 558.803C867.994 556.214 866.366 553.592 865.535 550.678C864.754 548.007 864.656 545.174 864.558 542.389C863.451 509.87 862.376 476.993 868.76 445.077C870.6 435.844 873.091 426.481 871.853 417.15C869.851 402.12 857.687 389.37 857.035 374.226C861.253 369.781 864.672 364.586 867.05 358.936C867.457 358.007 867.831 357.014 867.75 356.005C867.62 354.23 866.187 352.894 864.9 351.673C859.95 347.016 855.749 341.545 852.525 335.568C849.561 330.064 847.151 323.828 841.956 320.359C837.674 317.493 832.561 317.135 828.832 313.569C824.451 296.162 833.652 278.591 836.957 260.94C842.999 228.714 829.141 196.228 827.855 163.448C827.757 160.745 827.741 158.01 828.359 155.372C829.043 152.457 830.509 149.721 830.867 146.758C831.421 141.986 829.06 137.411 826.764 133.177C824.712 129.366 822.627 125.523 819.843 122.185C816.7 118.391 812.743 115.362 808.705 112.545C804.78 109.793 800.628 107.155 795.938 106.129C791.249 105.104 785.891 105.983 782.569 109.451C777.489 104.762 769.689 103.589 762.817 104.354C755.945 105.12 749.481 107.937 743.293 110.998C739.026 113.115 734.809 115.379 731.145 118.391C724.745 123.651 720.333 130.93 716.31 138.176C703.235 161.674 692.731 186.539 683.271 211.714C680.193 219.872 677.213 228.144 675.894 236.758C673.598 251.772 676.431 266.948 680.453 281.685C678.662 284.698 676.79 287.678 674.901 290.641C669.836 298.555 664.772 306.485 659.692 314.399C652.413 318.047 645.622 322.672 639.597 328.143C629.436 337.376 621.148 349.133 608.902 355.353C613.706 358.594 615.237 364.814 616.963 370.334C618.689 375.871 621.799 381.945 627.482 383.085C622.483 418.762 618.591 454.277 616.263 490.232C615.074 508.763 614.439 528.336 623.02 544.799C627.254 552.892 633.475 559.748 640.004 566.115C652.152 577.953 665.619 588.391 680.046 597.282C679.867 597.705 679.721 598.145 679.542 598.552C666.01 628.319 656.793 660.04 652.299 692.412C650.589 704.625 651.094 716.886 651.924 729.197C653.732 755.788 666.352 780.23 675.552 805.242C684.915 830.678 690.891 857.22 696.819 883.665C700.141 898.451 702.73 914.165 704.619 929.195C705.482 936.067 706.345 943.085 705.058 949.892C703.756 956.714 699.945 963.423 693.692 966.42C692.601 966.957 691.282 967.576 691.119 968.781C691.054 969.269 691.217 969.774 691.429 970.214C694.083 976.19 703.511 977.721 704.456 984.185C704.765 986.335 703.967 988.468 703.251 990.503C692.78 1020.58 697.242 1053.34 704 1084.75C701.834 1105.42 701.492 1126.38 696.526 1146.65C694.962 1152.97 693.025 1159.84 695.744 1165.73C696.412 1167.17 697.34 1168.5 697.763 1170.02C698.838 1173.89 696.444 1178.04 697.258 1181.98C697.665 1183.96 698.838 1185.7 699.098 1187.67C699.847 1193.55 700.32 1197.5 695.874 1201.38C689.1 1207.32 686.951 1217.11 687.602 1226.08C688.253 1235.07 691.25 1243.68 693.106 1252.49C696.851 1270.32 695.858 1288.79 694.848 1306.98C699.196 1312.45 710.644 1309.94 712.565 1308.44C710.416 1293.38 710.465 1278.01 712.663 1262.96C713.102 1259.94 714.519 1256.26 716.262 1257.35C725.543 1263.13 729.973 1270.01 733.294 1278.19C734.337 1291.36 733.408 1305.48 733.066 1316.88C733.001 1319.09 747.95 1321.33 750.05 1317.92C750.034 1315.58 749.969 1313.23 749.904 1310.89C750.197 1311.02 750.474 1311.18 750.767 1311.33C756.841 1314.21 763.257 1316.78 769.982 1316.88C771.105 1316.88 772.229 1316.8 773.369 1316.64C773.971 1319.84 774.655 1323.05 776.267 1325.87C779.036 1330.72 784.263 1333.8 789.685 1335.18C795.108 1336.58 851.14 1345.07 872.065 1330.22C874.703 1328.34 869.932 1324.42 867.196 1322.69C850.522 1312.17 832.121 1301.05 822.823 1283.66C820.755 1279.79 809.926 1264.27 808.347 1260.08C806.751 1255.88 805.871 1252.18 808.444 1248.5C804.552 1244.42 804.878 1237.92 806.262 1232.46C807.646 1226.99 809.845 1221.44 808.819 1215.89C806.734 1204.51 791.867 1197.11 793.512 1185.65C794.131 1181.25 797.274 1177.25 796.769 1172.82C796.345 1169.2 793.593 1166.37 791.411 1163.44C782.716 1151.79 782.13 1136.15 782.195 1121.6C782.309 1082.75 796.948 1044.03 789.767 1005.84C787.764 995.193 792.177 983.583 800.758 976.955C798.462 975.929 796.166 974.92 793.87 973.91C797.567 969.253 802.517 965.589 808.053 963.423C806.197 959.336 799.439 958.766 798.576 954.353C798.299 952.953 798.755 951.52 799.26 950.168C804.666 935.839 816.586 924.359 820.25 909.508C821.211 905.6 821.602 901.48 823.556 897.962C825.493 894.445 829.678 891.709 833.472 893.061C829.548 890.798 828.783 885.261 830.183 880.962C831.584 876.663 834.58 873.097 836.794 869.156C839.302 864.646 840.8 859.663 842.217 854.696C851.694 821.51 859.152 787.737 864.493 753.623C865.258 748.77 865.991 743.901 867.408 739.195C868.466 735.678 869.932 732.226 870.095 728.546C870.258 724.882 868.76 720.811 865.421 719.264C867.636 715.926 870.648 713.125 874.133 711.171C870.632 692.884 870.046 673.05 871.381 654.487C878.204 645.759 884.75 636.819 891.019 627.684Z" fill="black"/>
<path d="M259.398 765.114C259.04 762.786 259.317 760.392 259.61 758.031C260.278 752.446 261.743 745.786 267.036 743.88C267.899 747.902 269.967 751.517 272.018 755.084C272.263 755.507 272.523 755.947 272.767 756.386C272.181 758.78 271.611 761.288 271.041 763.958C269.429 768.078 268.175 772.393 267.264 776.839C263.388 773.729 260.131 769.918 259.398 765.114ZM274.836 673.323C273.728 647.757 271.872 607.617 270.765 582.036C271.742 581.449 272.947 581.319 274.021 581.661C271.009 580.147 268.241 578.111 265.896 575.685C268.973 575.164 272.214 574.561 274.559 572.493C276.904 570.425 277.767 566.37 275.487 564.237C277.408 560.508 277.376 555.851 275.422 552.138C279.053 553.702 283.124 550.266 284.28 546.472C285.404 542.661 284.752 538.574 285.273 534.65C285.632 532.028 286.495 529.504 287.358 526.996C291.999 513.578 296.64 500.144 301.297 486.726C303.316 518.17 303.788 550.298 301.59 581.742C301.15 588.223 300.613 594.867 302.42 601.104C303.316 604.165 304.765 607.113 305.042 610.288C305.286 613.121 304.586 615.955 303.902 618.723C295.093 653.733 286.299 688.743 277.506 723.737C274.461 719.731 271.123 715.872 268.811 711.427C266.287 706.574 265.065 701.168 264.104 695.778C263.274 691.235 262.655 686.659 262.134 682.051C265.277 681.106 268.403 680.08 271.481 678.924C272.393 678.582 273.354 678.191 273.989 677.459C274.917 676.351 274.901 674.756 274.836 673.323ZM538.291 595.828C538.047 588.565 537.787 581.319 537.526 574.089C537.2 565.345 536.744 556.112 531.957 548.768C528.586 543.573 522.919 538.737 523.815 532.582C524.206 529.976 525.753 527.713 526.779 525.286C527.495 523.593 527.919 521.818 528.244 519.994C534.172 540.105 540.115 560.215 546.059 580.326C547.15 584.022 548.241 587.735 549.902 591.22C545.668 591.757 540.978 592.587 538.291 595.828ZM606.325 558.75C604.892 544.664 603.475 530.579 601.994 516.493C597.711 475.751 592.956 435.042 587.745 394.413C587.127 389.561 586.475 384.643 584.423 380.198C581.606 374.091 576.412 369.45 571.282 365.086C563.352 358.345 554.64 351.229 545.44 351.489C544.382 350.838 543.176 350.333 542.037 349.893C525.443 343.429 508.622 336.736 494.537 325.842C493.853 325.305 493.185 324.767 492.68 324.067C492.127 323.286 491.834 322.357 491.573 321.446C489.505 314.492 488.528 307.246 486.313 300.342C484.229 293.845 480.777 287.494 475.289 283.504C478.823 276.6 480.5 268.833 478.872 261.326C482.845 262.368 487.128 260.235 489.7 257.043C492.29 253.851 493.495 249.781 494.406 245.775C496.67 235.89 497.435 224.948 492.452 216.089C490.222 216.871 487.991 217.653 485.76 218.434C487.258 217.913 487.193 203.893 487.242 202.053C487.388 196.663 487.486 190.996 486.672 185.639C486.118 182.04 484.441 178.832 484.294 175.168C484.213 173.1 486.59 163.965 482.194 164.209C483.61 160.936 484.848 157.354 484.131 153.853C483.431 150.352 480.06 147.176 476.559 147.909C474.866 143.512 473.172 139.132 471.479 134.735C471.153 133.872 470.795 132.977 470.127 132.325C467.848 130.094 463.728 132.065 460.976 130.469C458.875 129.231 458.37 126.431 456.775 124.591C454.821 122.343 451.385 121.871 448.502 122.653C445.62 123.434 443.145 125.258 440.751 127.049C439.009 124.477 435.117 123.695 432.528 125.388C428.424 124.151 423.588 126.186 421.602 129.964C420.69 128.775 419.778 127.57 418.866 126.365C413.346 129.736 407.451 132.472 401.328 134.491C402.663 133.482 403.999 132.456 405.334 131.446C395.059 132.407 387.943 141.786 382.162 150.335C381.934 149.602 381.69 148.886 381.446 148.153C376.267 156.539 375.6 166.847 375.258 176.699C374.737 191.452 374.655 206.221 374.997 220.991C375.502 217.832 370.324 216.513 368.109 218.825C365.895 221.137 366.009 224.752 366.269 227.928C367.132 238.121 368.207 248.722 373.613 257.401C375.437 260.332 379.166 263.247 382.016 261.277C383.432 267.725 384.914 274.304 387.764 280.199C386.005 281.697 384.54 283.618 383.595 285.686C381.136 291.076 381.104 297.199 380.045 303.012C379.703 304.852 379.247 306.709 378.091 308.174C376.626 310.031 374.297 310.943 372.099 311.757C341.208 323.318 310.53 335.417 280.079 348.07C277.099 349.323 274.07 350.594 271.66 352.743C262.476 360.885 266.596 376.143 261.906 387.476C260.522 390.798 258.373 393.746 256.516 396.823C249.351 408.743 246.485 422.666 243.147 436.149C240.2 448.036 236.829 459.809 233.002 471.436C230.12 480.278 226.847 489.25 220.806 496.334C212.729 505.795 214.781 519.229 214.195 531.653C213.218 551.796 204.392 570.832 202.568 590.926C201.102 607.275 204.327 623.641 207.535 639.745C209.603 650.086 212.42 674.983 214.488 685.324C214.716 686.48 215.025 687.75 215.986 688.434C216.784 689.004 217.826 689.004 218.803 688.988C220.285 688.955 221.783 688.89 223.265 688.808C224.909 698.856 226.196 708.984 226.701 719.145C227.091 726.831 227.026 734.566 226.277 742.236C225.919 746.014 225.398 749.791 225.414 753.602C225.463 761.532 227.906 769.251 230.788 776.66C231.7 779.021 232.693 781.382 234.224 783.417C236.617 786.609 240.184 788.71 243.636 790.729C246.73 792.52 249.97 794.376 253.536 794.556C256.077 794.67 258.649 793.937 261.141 794.442C262.444 794.718 263.632 795.288 264.854 795.842C261.597 828.556 255.246 861.059 251.973 893.822C248.325 930.363 246.143 967.017 243.961 1003.67C243.212 1016.05 242.48 1028.41 241.747 1040.78C238.669 1092.44 235.575 1144.23 226.359 1195.14C223.916 1208.62 220.708 1222.72 211.459 1232.83C209.7 1234.74 207.681 1236.6 206.899 1239.07C205.906 1242.2 207.062 1245.52 207.73 1248.73C211.361 1266.15 199.409 1283.72 184.135 1292.87C177.312 1296.98 169.675 1299.94 163.796 1305.31C157.934 1310.69 154.189 1319.64 157.836 1326.73C159.969 1330.86 164.154 1333.53 168.453 1335.32C184.086 1341.81 202.145 1338.55 217.842 1332.23C233.54 1325.9 247.967 1316.66 263.811 1310.72C266.205 1309.82 268.729 1308.95 270.455 1307.07C274.054 1303.2 272.816 1297.12 272.458 1291.86C271.416 1275.76 296.819 1261.31 293.432 1254.48C285.729 1250.14 290.419 1238.91 294.197 1230.95C297.991 1222.97 304.146 1215.74 304.863 1206.94C305.27 1201.99 303.87 1197.09 303.251 1192.16C301.899 1181.38 304.293 1170.5 306.849 1159.95C314.796 1127.15 324.42 1094.76 335.672 1062.96C341.16 1047.44 346.859 1029.45 338.408 1015.33C353.454 1001.77 352.64 978.53 353.144 958.289C354.187 915.626 371.171 892.047 387.373 840.46C388.383 879.899 389.392 919.355 390.402 958.81C390.63 968.011 391.216 977.179 393.105 986.2C395.841 988.707 395.499 993.12 394.359 996.67C393.219 1000.2 391.476 1003.82 392.16 1007.47C393.186 1012.87 399.032 1016.11 400.791 1021.32C401.8 1024.34 401.312 1027.63 400.758 1030.75C398.039 1045.9 393.87 1060.8 388.334 1075.16C386.298 1080.47 384.067 1085.74 382.993 1091.31C381.853 1097.27 382.081 1103.39 382.309 1109.45C383.318 1135.44 384.344 1161.63 390.402 1186.93C391.265 1190.58 392.16 1194.73 390.06 1197.84C389.213 1199.06 387.959 1199.99 387.226 1201.28C386.331 1202.81 386.249 1204.66 386.331 1206.42C386.608 1212.53 388.545 1218.44 389.408 1224.5C390.255 1230.55 389.832 1237.25 386.021 1242.03C384.849 1243.52 383.302 1244.92 383.107 1246.81C382.927 1248.83 384.377 1250.58 385.272 1252.41C388.757 1259.43 384.1 1267.49 381.218 1274.78C378.791 1280.92 377.586 1287.56 377.717 1294.19C377.847 1300.4 379.882 1307.53 385.631 1309.89C388.301 1310.98 391.33 1310.8 394.114 1311.57C398.365 1312.72 401.686 1315.88 405.367 1318.28C418.149 1326.6 434.645 1325.55 449.821 1324.19C457.491 1323.5 466.626 1321.78 469.492 1314.64C471.919 1308.64 468.304 1301.75 463.451 1297.45C458.598 1293.15 452.524 1290.4 447.721 1286.03C435.54 1274.93 435.085 1253.42 446.776 1241.79C442.445 1237.65 437.706 1232.15 439.449 1226.42C441.598 1219.32 452.834 1215.41 450.587 1208.34C449.707 1205.58 446.939 1203.95 445.262 1201.59C441.826 1196.75 442.624 1190.5 444.431 1184.85C459.689 1137.33 470.665 1088.43 477.178 1038.94C477.846 1033.94 478.465 1028.88 480.451 1024.26C482.242 1020.05 485.108 1016.32 486.379 1011.94C487.649 1007.56 486.704 1001.96 482.633 999.911C492.876 995.058 499.715 984.816 503.297 974.068C506.896 963.321 507.743 951.89 509.127 940.638C513.393 906.116 523.033 872.506 528.456 838.164C531.306 820.056 532.901 801.444 531.941 783.141C532.136 783.987 532.299 784.85 532.511 785.713C532.152 784.215 541.255 773.37 542.427 771.221C544.658 767.134 546.368 762.916 548.029 758.617C549.625 759.301 551.286 759.838 553.012 760.229C554.624 760.588 556.415 760.799 557.865 759.969C559.086 759.252 559.802 757.917 560.437 756.647C578.903 720.269 593.135 681.758 602.759 642.123C605.071 632.564 607.139 622.924 608.133 613.138C609.973 595.063 608.149 576.841 606.325 558.75Z" fill="black"/>
</g>
</g>
<defs>
<linearGradient id="paint0_linear" x1="164.51" y1="361.5" x2="975.51" y2="361.5" gradientUnits="userSpaceOnUse">
<stop stop-color="#6FB1FC"/>
<stop offset="0.5" stop-color="#4364F7"/>
<stop offset="1" stop-color="#0052D4"/>
</linearGradient>
</defs>
</svg>
